<svg id="logo" xmlns="http://www.w3.org/2000/svg" xmlns:xlink="http://www.w3.org/1999/xlink" viewBox="0 0 458 444">
	<defs>
		<style>svg{filter: drop-shadow( 0px 0px 7px white );}.cls-1,.cls-2,.cls-3{fill-rule:evenodd;}.cls-2{fill:url(#gradiente_idexo_81);}.cls-3{fill:url(#gradiente_idexo_81-2);}</style>
		<linearGradient id="gradiente_idexo_81" x1="200.1" y1="287.5" x2="397.73" y2="89.87" gradientUnits="userSpaceOnUse">
			<stop offset="0" stop-color="#752f8a"></stop>
			<stop offset="0.08" stop-color="#6f348e"></stop>
			<stop offset="0.18" stop-color="#5f439a"></stop>
			<stop offset="0.29" stop-color="#445cad"></stop>
			<stop offset="0.42" stop-color="#1e7fc8"></stop>
			<stop offset="0.5" stop-color="#009bde"></stop>
			<stop offset="0.52" stop-color="#069edc"></stop>
			<stop offset="0.61" stop-color="#2aadd0"></stop>
			<stop offset="0.71" stop-color="#45b9c6"></stop>
			<stop offset="0.8" stop-color="#59c2bf"></stop>
			<stop offset="0.9" stop-color="#65c7bb"></stop>
			<stop offset="1" stop-color="#69c9ba"></stop>
		</linearGradient>
		<linearGradient id="gradiente_idexo_81-2" x1="2275.64" y1="436.68" x2="2502.46" y2="567.63" gradientTransform="translate(2687.67 761.17) rotate(180)" xlink:href="#gradiente_idexo_81"></linearGradient></defs>
		<title>Logo iDEXO</title>
		<g id="idexo"><path d="M83.88,197.77H80.22a1.44,1.44,0,0,0-1.43,1.43v5.74a1.44,1.44,0,0,0,1.43,1.43h3.65a1.44,1.44,0,0,0,1.43-1.43V199.2A1.44,1.44,0,0,0,83.88,197.77Zm-.14,14.91H80.3a1.44,1.44,0,0,0-1.43,1.43v36.57a1.44,1.44,0,0,0,1.43,1.43h3.44a1.44,1.44,0,0,0,1.43-1.43V214.12A1.44,1.44,0,0,0,83.73,212.68Zm48.77-14.34a100.94,100.94,0,0,0-13,.72,1.68,1.68,0,0,0-1.5,1.79v49.26a1.64,1.64,0,0,0,1.5,1.79,101,101,0,0,0,13,.72c13.25,0,21.7-7,21.7-22.3v-9.68C154.21,205.15,145.76,198.34,132.51,198.34Zm15.19,32c0,12.91-6.59,16.71-15.19,16.71-3.37,0-5.66,0-8-.14V204.15c2.36-.14,4.58-.22,8-.22,8.6,0,15.19,3.73,15.19,16.71Zm53-26.1h13.83a.77.77,0,0,0,.79-.86v-3.58a1,1,0,0,0-.72-1c-3-.29-9.74-.43-14-.43-10,0-15.26,3.8-15.26,13.34v27.6c0,9.54,5.23,13.34,15.26,13.34,4.23,0,11.25-.07,14-.36a1,1,0,0,0,.72-1V247.6a.77.77,0,0,0-.79-.86H200.69c-7.59,0-8.81-2-8.81-7.46v-12h22a1.44,1.44,0,0,0,1.43-1.43v-2.72a1.44,1.44,0,0,0-1.43-1.43h-22v-10C191.87,206.23,193.09,204.22,200.69,204.22Z"></path>
		<path d="M361.46,229.53v-9.25c0-15.92-8.09-22.51-19.34-22.51s-19.41,6.6-19.41,22.51v9.25c0,15.92,8.17,22.51,19.41,22.51S361.46,245.45,361.46,229.53Zm-6.59,0c0,12-4.94,16.63-12.75,16.63s-12.82-4.59-12.82-16.63v-9.25c0-12,5-16.63,12.82-16.63s12.75,4.59,12.75,16.63Z"></path><path class="cls-1" d="M340.6,94.83,337.21,93a2.2,2.2,0,0,0-3,.89L230.79,287.13a2.19,2.19,0,0,0,.9,3l3.39,1.82a2.2,2.2,0,0,0,3-.89L341.5,97.8A2.19,2.19,0,0,0,340.6,94.83Z"></path><path class="cls-1" d="M227.56,164.63l3.39-1.82a2.2,2.2,0,0,1,3,.89l108,177a2.19,2.19,0,0,1-.9,3l-3.39,1.82a2.21,2.21,0,0,1-3-.89l-108-177A2.19,2.19,0,0,1,227.56,164.63Z"></path><path class="cls-2" d="M370.29,62.56l-6-3.12a2.2,2.2,0,0,0-3,.89L226.65,311.84a2.19,2.19,0,0,0,.9,3l6,3.12a2.2,2.2,0,0,0,3-.89L371.19,65.53A2.2,2.2,0,0,0,370.29,62.56Z"></path><path class="cls-3" d="M378.09,382.61l-6,3.12a2.2,2.2,0,0,1-3-.89L218.25,138.39a2.19,2.19,0,0,1,.9-3l6-3.12a2.2,2.2,0,0,1,3,.89L379,379.64A2.19,2.19,0,0,1,378.09,382.61Z"></path></g>

		<g id="tagline"><path d="M81.8,337.5H80.74a.37.37,0,0,1-.35-.38V323.59a.35.35,0,0,1,.35-.37H81.8a.35.35,0,0,1,.35.37v13.53A.37.37,0,0,1,81.8,337.5Z"></path><path d="M96.92,337.64a27,27,0,0,1-3.5-.19A.44.44,0,0,1,93,337v-13.2a.45.45,0,0,1,.4-.48,27.13,27.13,0,0,1,3.5-.19c3.55,0,5.82,1.83,5.82,6v2.59C102.74,335.77,100.47,337.64,96.92,337.64Zm4.07-8.57c0-3.48-1.77-4.48-4.07-4.48-.9,0-1.5,0-2.13.06V336.1c.61,0,1.23,0,2.13,0,2.31,0,4.07-1,4.07-4.48Z"></path><path d="M120.85,337.54c-.73.08-2.61.1-3.75.1-2.69,0-4.09-1-4.09-3.57v-7.4c0-2.56,1.4-3.57,4.09-3.57,1.13,0,2.94,0,3.75.12a.27.27,0,0,1,.19.27v1a.21.21,0,0,1-.21.23h-3.71c-2,0-2.36.54-2.36,2v2.67h5.9a.39.39,0,0,1,.38.38v.73a.39.39,0,0,1-.38.38h-5.9v3.23c0,1.46.33,2,2.36,2h3.71a.21.21,0,0,1,.21.23v1A.27.27,0,0,1,120.85,337.54Z"></path><path d="M132.88,337.5h-1.06a.37.37,0,0,1-.35-.38V323.59a.35.35,0,0,1,.35-.37h1.06a.35.35,0,0,1,.35.37v13.53A.37.37,0,0,1,132.88,337.5Z"></path><path d="M153.13,337.5h-1.06a.37.37,0,0,1-.35-.38v-5.69h-5.88v5.69a.37.37,0,0,1-.35.38h-1.06a.38.38,0,0,1-.35-.38v-10c0-2.94,1.36-4,4.13-4h1.11c2.75,0,4.13,1,4.13,4v10A.38.38,0,0,1,153.13,337.5Zm-1.4-10.43c0-2-.63-2.44-2.38-2.44h-1.11c-1.75,0-2.38.44-2.38,2.44v2.82h5.88Z"></path><path d="M167.51,337.64a19.18,19.18,0,0,1-3.19-.27c-.33-.06-.37-.13-.37-.35v-.77a.3.3,0,0,1,.33-.31h.06c.88.08,2.29.12,3.17.12,2.31,0,2.92-.92,2.92-2.27,0-1-.56-1.5-2.31-2.57l-1.86-1.13c-1.77-1.08-2.65-2.06-2.65-3.59,0-2.32,1.67-3.4,4.59-3.4a26,26,0,0,1,3.34.23c.19,0,.33.13.33.33v.83a.3.3,0,0,1-.33.31h0c-.85-.06-2.19-.12-3.3-.12-2,0-2.82.42-2.82,1.83,0,.9.63,1.44,2.09,2.32l1.77,1.06c2.23,1.33,3,2.38,3,3.92C172.26,335.64,171.3,337.64,167.51,337.64Z"></path><path d="M88,373.71c-.73.08-2.61.1-3.75.1-2.69,0-4.09-1-4.09-3.57v-7.4c0-2.56,1.4-3.57,4.09-3.57,1.13,0,2.94,0,3.75.12a.27.27,0,0,1,.19.27v1a.21.21,0,0,1-.21.23H84.32c-2,0-2.36.54-2.36,2v2.67h5.9a.39.39,0,0,1,.38.38v.73a.39.39,0,0,1-.38.38H82v3.23c0,1.46.33,2,2.36,2H88a.21.21,0,0,1,.21.23v1A.27.27,0,0,1,88,373.71Z"></path><path d="M108.27,373.68h-1.21c-.19,0-.27-.08-.4-.29l-3.52-5.59-3.44,5.59c-.13.21-.25.29-.4.29H98.16a.28.28,0,0,1-.31-.29.37.37,0,0,1,.06-.19l4.27-6.78L98,359.86a.37.37,0,0,1-.06-.19.26.26,0,0,1,.29-.27h1.25a.33.33,0,0,1,.35.19l3.46,5.48,3.34-5.48a.36.36,0,0,1,.37-.19h1.13a.29.29,0,0,1,.31.29.31.31,0,0,1-.06.17l-4.13,6.59,4.32,6.74a.39.39,0,0,1,.06.21A.27.27,0,0,1,108.27,373.68Z"></path><path d="M122.22,368c-.61,0-1.42-.06-1.92-.1v5.4a.37.37,0,0,1-.35.38h-1a.37.37,0,0,1-.35-.38V359.9a.47.47,0,0,1,.46-.48,30.87,30.87,0,0,1,3.19-.15c3.11,0,5.38,1.08,5.38,4.17v.25C127.6,366.89,125.33,368,122.22,368Zm3.63-4.55c0-1.94-1.15-2.69-3.63-2.69-.6,0-1.46,0-1.92.08v5.63c.44,0,1.42.08,1.92.08,2.63,0,3.63-.85,3.63-2.84Z"></path><path d="M142.5,373.81c-3,0-5.21-1.77-5.21-6V365.3c0-4.27,2.19-6,5.21-6s5.19,1.77,5.19,6v2.48C147.69,372,145.52,373.81,142.5,373.81Zm3.42-8.51c0-3.23-1.31-4.46-3.42-4.46s-3.44,1.23-3.44,4.46v2.48c0,3.23,1.33,4.46,3.44,4.46s3.42-1.23,3.42-4.46Z"></path><path d="M167.55,373.68h-1.08a.35.35,0,0,1-.33-.38V364.8c0-3.34-1.15-4-3.54-4-.83,0-2.36.08-2.84.12v12.39a.37.37,0,0,1-.35.38h-1.06a.35.35,0,0,1-.35-.38V360.15c0-.48.15-.61.54-.67a37.05,37.05,0,0,1,4.09-.23c3.46,0,5.25,1.31,5.25,5.55v8.49A.37.37,0,0,1,167.55,373.68Z"></path><path d="M186.26,373.71c-.73.08-2.61.1-3.75.1-2.69,0-4.09-1-4.09-3.57v-7.4c0-2.56,1.4-3.57,4.09-3.57,1.13,0,2.94,0,3.75.12a.27.27,0,0,1,.19.27v1a.21.21,0,0,1-.21.23h-3.71c-2,0-2.36.54-2.36,2v2.67h5.9a.39.39,0,0,1,.38.38v.73a.39.39,0,0,1-.38.38h-5.9v3.23c0,1.46.33,2,2.36,2h3.71a.21.21,0,0,1,.21.23v1A.27.27,0,0,1,186.26,373.71Z"></path><path d="M206.22,373.68h-1.08a.35.35,0,0,1-.33-.38V364.8c0-3.34-1.15-4-3.54-4-.83,0-2.36.08-2.84.12v12.39a.37.37,0,0,1-.35.38H197a.35.35,0,0,1-.35-.38V360.15c0-.48.15-.61.54-.67a37.05,37.05,0,0,1,4.09-.23c3.46,0,5.25,1.31,5.25,5.55v8.49A.37.37,0,0,1,206.22,373.68Z"></path><path d="M225,373.56a15.11,15.11,0,0,1-3.19.25c-2.36,0-5.07-1.27-5.07-5.94V365.2c0-4.71,2.71-5.94,5.07-5.94a20.69,20.69,0,0,1,3.23.31c.17,0,.31.08.31.25v1c0,.12,0,.21-.23.21h-.06c-.69-.06-2.11-.17-3.23-.17-1.88,0-3.34,1.1-3.34,4.36v2.67c0,3.23,1.46,4.36,3.34,4.36,1.1,0,2.48-.1,3.17-.15h.08a.27.27,0,0,1,.31.31v.79C225.39,373.41,225.22,373.52,225,373.56Z"></path><path d="M236.84,373.68h-1.06a.37.37,0,0,1-.35-.38V359.77a.35.35,0,0,1,.35-.37h1.06a.35.35,0,0,1,.35.37v13.53A.37.37,0,0,1,236.84,373.68Z"></path><path d="M257.09,373.68H256a.37.37,0,0,1-.35-.38V367.6h-5.88v5.69a.37.37,0,0,1-.35.38h-1.06a.38.38,0,0,1-.35-.38v-10c0-2.94,1.36-4,4.13-4h1.11c2.75,0,4.13,1,4.13,4v10A.38.38,0,0,1,257.09,373.68Zm-1.4-10.43c0-2-.63-2.44-2.38-2.44h-1.11c-1.75,0-2.38.44-2.38,2.44v2.82h5.88Z"></path><path d="M269.71,373.68h-1.06a.37.37,0,0,1-.35-.38V359.77a.35.35,0,0,1,.35-.37h1.06a.35.35,0,0,1,.35.37v13.53A.37.37,0,0,1,269.71,373.68Z"></path><path d="M284.29,373.81a19.18,19.18,0,0,1-3.19-.27c-.33-.06-.37-.13-.37-.35v-.77a.3.3,0,0,1,.33-.31h.06c.88.08,2.29.12,3.17.12,2.31,0,2.92-.92,2.92-2.27,0-1-.56-1.5-2.31-2.57L283,366.26c-1.77-1.08-2.65-2.06-2.65-3.59,0-2.32,1.67-3.4,4.59-3.4a26,26,0,0,1,3.34.23c.19,0,.33.13.33.33v.83a.3.3,0,0,1-.33.31h0c-.85-.06-2.19-.12-3.3-.12-2,0-2.82.42-2.82,1.83,0,.9.63,1.44,2.09,2.32L286,366c2.23,1.33,3,2.38,3,3.92C289,371.81,288.08,373.81,284.29,373.81Z"></path></g></svg>
